/* XPM */
static char * logo_64_xpm[] = {
"64 64 23 1",
" 	c None",
".	c #5A5A5A",
"+	c #5B5B5B",
"@	c #595959",
"#	c #F9A542",
"$	c #F9A643",
"%	c #FAA542",
"&	c #FAA541",
"*	c #FBA542",
"=	c #FAA443",
"-	c #F9A543",
";	c #FAA641",
">	c #FAA441",
",	c #FAA442",
"'	c #FAA643",
")	c #F9A641",
"!	c #FBA642",
"~	c #FAA543",
"{	c #F9A442",
"]	c #F9A443",
"^	c #FBA543",
"/	c #F9A541",
"(	c #F9A441",
"                                                                ",
"                                                                ",
"                                           .                    ",
"                                           .                    ",
"                                           .                    ",
"                              .            ..                   ",
"                        .............      ..                   ",
"                      ................     ..                   ",
"                   +...          @......   ..                   ",
"                  +                 ....   +.+                  ",
"                                      ...  @..                  ",
"                                       ..  ...                  ",
"                                           ...                  ",
"                                          .....                 ",
"                                      @........                 ",
"                               ................                 ",
"                                   .....@......                 ",
"                                                                ",
"      .......         .......                                   ",
"      ........       ........                                   ",
"      ........       ........                                   ",
"      ........+      ........                                   ",
"      .........     .........                                   ",
"      .........     .........                                   ",
"      ..... ....   +... .....                                   ",
"      ..... @...   .... .....                                   ",
"      .....  .... @...  .....     ####        ####        ###$  ",
"      .....  @... ....  .....     %%%%%      &%%%%%      %%%%%  ",
"      .....   .......   .....     %%%%%      %%%%%*      %%%%=  ",
"      .....   .......   .....     *%%%%      %%%%%%     -%%%%   ",
"      .....   @.....+   .....      %%%%%     %%%%%%     ;%%%%   ",
"      .....    .....    .....      %%%%%    #%%%%%%>    %%%%%   ",
"      .....    +....    .....      ,%%%%    %%%'&%%%    %%%%,   ",
"      .....     ...     .....      #%%%%    %%% $%%%    %%%%    ",
"      .....             .....       %%%%=   %%%  %%%   #%%%%    ",
"      .....             .....       %%%%%  %%%%  %%%)  %%%%%    ",
"      .....             .....       %%%%%  &%%!  ~%%,  %%%%*    ",
"       ....             ....        >%%%%  %%%   ,%%%  %%%%     ",
"                                     %%%%# %%%    %%% ,%%%%     ",
"                                     %%%%,>%%%    %%% &%%%%     ",
"                                     %%%%%%%%#    %%%,%%%%%     ",
"                                     &%%%%%%%     '%%%%%%%{     ",
"                                      %%%%%%%      %%%%%%%      ",
"                                      %%%%%%%      %%%%%%%      ",
"                                      %%%%%%~      *%%%%%~      ",
"                                      !%%%%%]      ,%%%%%,      ",
"                                                                ",
"                 %%%%!%%%;!=#                                   ",
"                 %%%%%%%%%%%%%%%&                               ",
"                 %%%%%%%%>                                      ",
"                 %%%%&                                          ",
"                  %%%                                           ",
"                  %%*  &%                                       ",
"                  %%%  %%%                                      ",
"                  #%!   %%%*                 >                  ",
"                   %%   &%%%%%^          $&-/                   ",
"                   %%     %%%%%%%%%!%%%%%%                      ",
"                   {%      (%%%%%%%%%%%~                        ",
"                   ,%            #                              ",
"                    %                                           ",
"                    %                                           ",
"                    %                                           ",
"                                                                ",
"                                                                "};
